<svg width="15" height="16" viewBox="0 0 25 26" fill="none" xmlns="http://www.w3.org/2000/svg">
<path d="M23.7392 18.9958C23.0454 17.8006 22.014 14.4187 22.014 10.0017C22.014 7.3491 20.9602 4.80513 19.0845 2.92944C17.2088 1.05375 14.6648 0 12.0122 0C9.3596 0 6.81562 1.05375 4.93993 2.92944C3.06424 4.80513 2.01049 7.3491 2.01049 10.0017C2.01049 14.42 0.977815 17.8006 0.283945 18.9958C0.106752 19.2996 0.012816 19.6448 0.0116085 19.9966C0.0104009 20.3483 0.101965 20.6942 0.277067 20.9992C0.452169 21.3043 0.704617 21.5578 1.00895 21.7342C1.31329 21.9105 1.65875 22.0035 2.01049 22.0038H7.11263C7.34338 23.1329 7.95705 24.1477 8.84984 24.8765C9.74263 25.6053 10.8597 26.0034 12.0122 26.0034C13.1647 26.0034 14.2818 25.6053 15.1746 24.8765C16.0674 24.1477 16.6811 23.1329 16.9118 22.0038H22.014C22.3656 22.0033 22.7109 21.9102 23.0151 21.7337C23.3192 21.5572 23.5715 21.3037 23.7464 20.9987C23.9214 20.6937 24.0128 20.3479 24.0116 19.9963C24.0103 19.6446 23.9164 19.2995 23.7392 18.9958ZM12.0122 24.0041C11.3919 24.004 10.7869 23.8115 10.2804 23.4533C9.77398 23.095 9.39101 22.5887 9.18423 22.0038H14.8402C14.6334 22.5887 14.2505 23.095 13.744 23.4533C13.2376 23.8115 12.6326 24.004 12.0122 24.0041ZM2.01049 20.0035C2.97316 18.3482 4.01084 14.5125 4.01084 10.0017C4.01084 7.87963 4.85384 5.84445 6.35439 4.3439C7.85494 2.84335 9.89012 2.00035 12.0122 2.00035C14.1343 2.00035 16.1695 2.84335 17.6701 4.3439C19.1706 5.84445 20.0136 7.87963 20.0136 10.0017C20.0136 14.5088 21.0488 18.3444 22.014 20.0035H2.01049Z" fill="#64748b"/>
</svg>
