<svg width="6" height="5" viewBox="0 0 6 5" fill="none" xmlns="http://www.w3.org/2000/svg">
<path d="M2.62351 4.07L0.225505 1.329C-0.0574945 1.0065 0.172505 0.5 0.602005 0.5H5.39801C5.49413 0.499918 5.58824 0.527544 5.66906 0.57957C5.74989 0.631597 5.814 0.705819 5.85373 0.793347C5.89346 0.880875 5.90711 0.977999 5.89306 1.07309C5.87901 1.16818 5.83785 1.2572 5.77451 1.3295L3.37651 4.0695C3.32957 4.1232 3.2717 4.16625 3.20676 4.19574C3.14182 4.22523 3.07133 4.24049 3.00001 4.24049C2.92868 4.24049 2.85819 4.22523 2.79325 4.19574C2.72831 4.16625 2.67044 4.1232 2.62351 4.0695V4.07Z" fill="#9E9E9E"/>
</svg>
