<svg width="25" height="25" viewBox="0 0 25 25" fill="none" xmlns="http://www.w3.org/2000/svg">
<path d="M11.6001 4.5H4.6001C4.06966 4.5 3.56096 4.71071 3.18588 5.08579C2.81081 5.46086 2.6001 5.96957 2.6001 6.5V20.5C2.6001 21.0304 2.81081 21.5391 3.18588 21.9142C3.56096 22.2893 4.06966 22.5 4.6001 22.5H18.6001C19.1305 22.5 19.6392 22.2893 20.0143 21.9142C20.3894 21.5391 20.6001 21.0304 20.6001 20.5V13.5" stroke="#145041" stroke-width="2" stroke-linecap="round" stroke-linejoin="round"/>
<path d="M19.1001 3C19.4979 2.60217 20.0375 2.37868 20.6001 2.37868C21.1627 2.37868 21.7023 2.60217 22.1001 3C22.4979 3.39782 22.7214 3.93739 22.7214 4.5C22.7214 5.06261 22.4979 5.60217 22.1001 6L12.6001 15.5L8.6001 16.5L9.6001 12.5L19.1001 3Z" stroke="#145041" stroke-width="2" stroke-linecap="round" stroke-linejoin="round"/>
</svg>
