<svg width="18" height="18" viewBox="0 0 21 21" fill="none" xmlns="http://www.w3.org/2000/svg">
<path d="M6.807 11.75H2.932C2.41859 11.7529 1.92721 11.9589 1.5652 12.323C1.20319 12.687 0.999993 13.1796 1 13.693V17.568C0.999738 17.8218 1.04953 18.0731 1.14653 18.3077C1.24353 18.5422 1.38583 18.7553 1.56528 18.9347C1.74474 19.1142 1.95783 19.2565 2.19235 19.3535C2.42687 19.4505 2.67821 19.5003 2.932 19.5H6.807C7.32048 19.5005 7.81324 19.2975 8.17726 18.9353C8.54128 18.5732 8.74688 18.0815 8.749 17.568V13.693C8.74926 13.4379 8.69921 13.1853 8.60171 12.9495C8.50421 12.7138 8.36117 12.4996 8.18079 12.3192C8.00041 12.1388 7.78622 11.9958 7.55048 11.8983C7.31475 11.8008 7.0621 11.7507 6.807 11.751M6.807 1H2.932C2.67821 0.999738 2.42687 1.04953 2.19235 1.14653C1.95783 1.24353 1.74474 1.38583 1.56528 1.56528C1.38583 1.74474 1.24353 1.95783 1.14653 2.19235C1.04953 2.42687 0.999738 2.67821 1 2.932V6.807C0.999467 7.32048 1.20253 7.81324 1.56468 8.17726C1.92683 8.54128 2.41852 8.74688 2.932 8.749H6.807C7.0621 8.74926 7.31475 8.69921 7.55048 8.60171C7.78622 8.50421 8.00041 8.36117 8.18079 8.18079C8.36117 8.00041 8.50421 7.78622 8.60171 7.55048C8.69921 7.31475 8.74926 7.0621 8.749 6.807V2.932C8.74688 2.41852 8.54128 1.92683 8.17726 1.56468C7.81324 1.20253 7.32048 0.999467 6.807 1ZM17.568 1H13.693C13.1795 0.999467 12.6868 1.20253 12.3227 1.56468C11.9587 1.92683 11.7531 2.41852 11.751 2.932V6.807C11.7513 7.32197 11.956 7.81577 12.3201 8.17991C12.6842 8.54405 13.178 8.74874 13.693 8.749H17.568C18.0815 8.74688 18.5732 8.54128 18.9353 8.17726C19.2975 7.81324 19.5005 7.32048 19.5 6.807V2.932C19.5003 2.67821 19.4505 2.42687 19.3535 2.19235C19.2565 1.95783 19.1142 1.74474 18.9347 1.56528C18.7553 1.38583 18.5422 1.24353 18.3077 1.14653C18.0731 1.04953 17.8218 0.999738 17.568 1ZM15.625 11.75C14.5973 11.75 13.6117 12.1583 12.885 12.885C12.1583 13.6117 11.75 14.5973 11.75 15.625C11.75 16.6527 12.1583 17.6383 12.885 18.365C13.6117 19.0917 14.5973 19.5 15.625 19.5C16.6527 19.5 17.6383 19.0917 18.365 18.365C19.0917 17.6383 19.5 16.6527 19.5 15.625C19.5 14.5973 19.0917 13.6117 18.365 12.885C17.6383 12.1583 16.6527 11.75 15.625 11.75Z" stroke="#64748b" stroke-width="2" stroke-linecap="round" stroke-linejoin="round"/>
</svg>
