<svg width="20" height="20" viewBox="0 0 20 20" fill="none" xmlns="http://www.w3.org/2000/svg">
<path d="M9.99999 12.7C10.7161 12.7 11.4028 12.4155 11.9092 11.9092C12.4155 11.4028 12.7 10.7161 12.7 10C12.7 9.28392 12.4155 8.59716 11.9092 8.09081C11.4028 7.58447 10.7161 7.3 9.99999 7.3C9.2839 7.3 8.59715 7.58447 8.0908 8.09081C7.58445 8.59716 7.29999 9.28392 7.29999 10C7.29999 10.7161 7.58445 11.4028 8.0908 11.9092C8.59715 12.4155 9.2839 12.7 9.99999 12.7Z" stroke="#64748b" stroke-width="1.5" stroke-linecap="round" stroke-linejoin="round"/>
<path d="M16.8598 8.5555L15.8725 6.1705L17.2 4.6L15.4 2.8L13.8385 4.1347L11.4022 3.133L10.8415 1H9.0829L8.5141 3.1609L6.1336 4.1644L4.6 2.8L2.8 4.6L4.1077 6.2101L3.1357 8.6014L1 9.1V10.9L3.1609 11.4904L4.1644 13.87L2.8 15.4L4.6 17.2L6.2119 15.886L8.5573 16.8508L9.1 19H10.9L11.4436 16.8517L13.8295 15.8635C14.2273 16.1488 15.4 17.2 15.4 17.2L17.2 15.4L15.8644 13.825L16.8526 11.4382L19 10.8802V9.1L16.8598 8.5555Z" stroke="#64748b" stroke-width="1.5" stroke-linecap="round" stroke-linejoin="round"/>
</svg>
