<svg width="10" height="14" viewBox="0 0 10 14" fill="none" xmlns="http://www.w3.org/2000/svg">
<path d="M0.751323 6.33335H8.44932C9.02399 6.33335 9.32932 5.65335 8.94732 5.22335L5.09866 0.893345C5.03623 0.822882 4.95956 0.766468 4.87371 0.727833C4.78786 0.689198 4.6948 0.66922 4.60066 0.66922C4.50652 0.66922 4.41345 0.689198 4.3276 0.727833C4.24175 0.766468 4.16508 0.822882 4.10266 0.893345L0.252656 5.22335C-0.129344 5.65335 0.175989 6.33335 0.751323 6.33335ZM4.10199 13.106C4.16442 13.1765 4.24109 13.2329 4.32693 13.2715C4.41278 13.3102 4.50585 13.3301 4.59999 13.3301C4.69413 13.3301 4.7872 13.3102 4.87304 13.2715C4.95889 13.2329 5.03556 13.1765 5.09799 13.106L8.94666 8.77601C9.32932 8.34668 9.02399 7.66668 8.44866 7.66668H0.751323C0.176656 7.66668 -0.128678 8.34668 0.253322 8.77668L4.10199 13.106Z" fill="#9E9E9E"/>
</svg>
